<?xml version="1.0" encoding="UTF-8" standalone="no"?>
<!-- Created with Inkscape (http://www.inkscape.org/) -->

<svg
   xmlns:dc="http://purl.org/dc/elements/1.1/"
   xmlns:cc="http://creativecommons.org/ns#"
   xmlns:rdf="http://www.w3.org/1999/02/22-rdf-syntax-ns#"
   xmlns:svg="http://www.w3.org/2000/svg"
   xmlns="http://www.w3.org/2000/svg"
   xmlns:sodipodi="http://sodipodi.sourceforge.net/DTD/sodipodi-0.dtd"
   xmlns:inkscape="http://www.inkscape.org/namespaces/inkscape"
   width="1205.6406mm"
   height="1076.9187mm"
   viewBox="0 0 1205.6406 1076.9187"
   version="1.1"
   id="svg8"
   sodipodi:docname="add.svg"
   inkscape:version="0.92.3 (2405546, 2018-03-11)">
  <defs
     id="defs2" />
  <sodipodi:namedview
     id="base"
     pagecolor="#ffffff"
     bordercolor="#666666"
     borderopacity="1.0"
     inkscape:pageopacity="0.0"
     inkscape:pageshadow="2"
     inkscape:zoom="0.015467961"
     inkscape:cx="-13691.757"
     inkscape:cy="-6132.9863"
     inkscape:document-units="mm"
     inkscape:current-layer="layer1"
     showgrid="false"
     inkscape:window-width="1920"
     inkscape:window-height="1015"
     inkscape:window-x="0"
     inkscape:window-y="36"
     inkscape:window-maximized="1" />
  <metadata
     id="metadata5">
    <rdf:RDF>
      <cc:Work
         rdf:about="">
        <dc:format>image/svg+xml</dc:format>
        <dc:type
           rdf:resource="http://purl.org/dc/dcmitype/StillImage" />
        <dc:title />
      </cc:Work>
    </rdf:RDF>
  </metadata>
  <g
     inkscape:label="Layer 1"
     inkscape:groupmode="layer"
     id="layer1"
     transform="translate(4727.409,2330.9098)">
    <g
       id="g4294"
       transform="matrix(3.5258145,0,0,3.5258145,-4660.9039,-2328.7674)">
      <g
         id="g4236">
        <g
           id="g4234">
          <path
             id="path4230"
             d="M 152.112,0 C 68.241,0 0.008,68.244 0.008,152.114 c 0,83.865 68.233,152.109 152.103,152.109 83.865,0 152.103,-68.244 152.103,-152.109 C 304.215,68.244 235.977,0 152.112,0 Z m 0,275.989 c -68.32,0 -123.891,-55.565 -123.891,-123.875 0,-68.326 55.571,-123.891 123.891,-123.891 68.32,0 123.891,55.565 123.891,123.891 0,68.31 -55.577,123.875 -123.891,123.875 z"
             style="fill:#010002"
             inkscape:connector-curvature="0" />
          <path
             id="path4232"
             d="M 221.922,139.186 H 165.035 V 82.298 c 0,-7.141 -5.782,-12.929 -12.923,-12.929 -7.141,0 -12.929,5.782 -12.929,12.929 v 56.887 H 82.296 c -7.141,0 -12.923,5.782 -12.923,12.929 0,7.141 5.782,12.923 12.923,12.923 h 56.882 v 56.893 c 0,7.142 5.787,12.923 12.929,12.923 7.141,0 12.929,-5.782 12.929,-12.923 v -56.893 h 56.882 c 7.142,0 12.929,-5.782 12.929,-12.923 0.004,-7.147 -5.784,-12.928 -12.925,-12.928 z"
             style="fill:#010002"
             inkscape:connector-curvature="0" />
        </g>
      </g>
      <g
         id="g4238" />
      <g
         id="g4240" />
      <g
         id="g4242" />
      <g
         id="g4244" />
      <g
         id="g4246" />
      <g
         id="g4248" />
      <g
         id="g4250" />
      <g
         id="g4252" />
      <g
         id="g4254" />
      <g
         id="g4256" />
      <g
         id="g4258" />
      <g
         id="g4260" />
      <g
         id="g4262" />
      <g
         id="g4264" />
      <g
         id="g4266" />
    </g>
  </g>
</svg>
