<?xml version="1.0" encoding="UTF-8" standalone="no"?>
<!-- Created with Inkscape (http://www.inkscape.org/) -->

<svg
   xmlns:dc="http://purl.org/dc/elements/1.1/"
   xmlns:cc="http://creativecommons.org/ns#"
   xmlns:rdf="http://www.w3.org/1999/02/22-rdf-syntax-ns#"
   xmlns:svg="http://www.w3.org/2000/svg"
   xmlns="http://www.w3.org/2000/svg"
   xmlns:sodipodi="http://sodipodi.sourceforge.net/DTD/sodipodi-0.dtd"
   xmlns:inkscape="http://www.inkscape.org/namespaces/inkscape"
   width="1205.6406mm"
   height="1076.9187mm"
   viewBox="0 0 1205.6406 1076.9187"
   version="1.1"
   id="svg8"
   sodipodi:docname="aligncenter.svg"
   inkscape:version="0.92.3 (2405546, 2018-03-11)">
  <defs
     id="defs2" />
  <sodipodi:namedview
     id="base"
     pagecolor="#ffffff"
     bordercolor="#666666"
     borderopacity="1.0"
     inkscape:pageopacity="0.0"
     inkscape:pageshadow="2"
     inkscape:zoom="0.015467961"
     inkscape:cx="-12648.532"
     inkscape:cy="-7913.0977"
     inkscape:document-units="mm"
     inkscape:current-layer="layer1"
     showgrid="false"
     inkscape:window-width="1920"
     inkscape:window-height="1015"
     inkscape:window-x="0"
     inkscape:window-y="36"
     inkscape:window-maximized="1" />
  <metadata
     id="metadata5">
    <rdf:RDF>
      <cc:Work
         rdf:about="">
        <dc:format>image/svg+xml</dc:format>
        <dc:type
           rdf:resource="http://purl.org/dc/dcmitype/StillImage" />
        <dc:title></dc:title>
      </cc:Work>
    </rdf:RDF>
  </metadata>
  <g
     inkscape:label="Layer 1"
     inkscape:groupmode="layer"
     id="layer1"
     transform="translate(4727.409,2330.9098)">
    <g
       id="g4399"
       transform="matrix(0.26458333,0,0,0.26458333,-2637.6842,-1198.8359)">
      <g
         id="g4328">
        <path
           id="path4296"
           d="m 26.105,21.891 c -0.229,0 -0.439,-0.131 -0.529,-0.346 v 0 c -0.066,-0.156 -1.716,-3.857 -7.885,-4.59 -1.285,-0.156 -2.824,-0.236 -4.693,-0.25 v 4.613 c 0,0.213 -0.115,0.406 -0.304,0.508 -0.188,0.098 -0.413,0.084 -0.588,-0.033 L 0.254,13.815 C 0.094,13.708 0,13.528 0,13.339 0,13.148 0.094,12.974 0.254,12.862 L 12.111,4.883 c 0.175,-0.121 0.398,-0.129 0.588,-0.029 0.19,0.102 0.303,0.295 0.303,0.502 v 4.293 c 2.578,0.336 13.674,2.33 13.674,11.674 0,0.271 -0.191,0.508 -0.459,0.562 -0.037,0.006 -0.076,0.006 -0.112,0.006 z"
           inkscape:connector-curvature="0" />
        <g
           id="g4298" />
        <g
           id="g4300" />
        <g
           id="g4302" />
        <g
           id="g4304" />
        <g
           id="g4306" />
        <g
           id="g4308" />
        <g
           id="g4310" />
        <g
           id="g4312" />
        <g
           id="g4314" />
        <g
           id="g4316" />
        <g
           id="g4318" />
        <g
           id="g4320" />
        <g
           id="g4322" />
        <g
           id="g4324" />
        <g
           id="g4326" />
      </g>
      <g
         id="g4330" />
      <g
         id="g4332" />
      <g
         id="g4334" />
      <g
         id="g4336" />
      <g
         id="g4338" />
      <g
         id="g4340" />
      <g
         id="g4342" />
      <g
         id="g4344" />
      <g
         id="g4346" />
      <g
         id="g4348" />
      <g
         id="g4350" />
      <g
         id="g4352" />
      <g
         id="g4354" />
      <g
         id="g4356" />
      <g
         id="g4358" />
    </g>
    <g
       id="g4465"
       transform="matrix(0.26458333,0,0,0.26458333,-2636.8931,-1198.0448)">
      <g
         id="g4407">
        <g
           id="g4405">
          <g
             id="g4403">
            <path
               id="path4401"
               d="M 0.358,16.978 C 0.148,16.934 0,16.752 0,16.542 0,9.289 8.61,7.744 10.61,7.483 V 4.155 c 0,-0.164 0.09,-0.314 0.235,-0.393 0.147,-0.076 0.321,-0.065 0.456,0.024 l 9.202,6.194 c 0.121,0.082 0.194,0.218 0.194,0.369 0,0.147 -0.073,0.284 -0.194,0.366 l -9.197,6.193 c -0.137,0.09 -0.313,0.1 -0.457,0.023 -0.146,-0.078 -0.236,-0.229 -0.236,-0.394 v -3.58 C 9.166,12.966 7.968,13.03 6.971,13.15 2.186,13.717 0.907,16.59 0.855,16.713 v 0 c -0.071,0.165 -0.233,0.271 -0.41,0.271 -0.03,0.002 -0.06,0 -0.087,-0.006 z"
               style="fill:#030104"
               inkscape:connector-curvature="0" />
          </g>
        </g>
      </g>
      <g
         id="g4409" />
      <g
         id="g4411" />
      <g
         id="g4413" />
      <g
         id="g4415" />
      <g
         id="g4417" />
      <g
         id="g4419" />
      <g
         id="g4421" />
      <g
         id="g4423" />
      <g
         id="g4425" />
      <g
         id="g4427" />
      <g
         id="g4429" />
      <g
         id="g4431" />
      <g
         id="g4433" />
      <g
         id="g4435" />
      <g
         id="g4437" />
    </g>
    <path
       id="path4545"
       d="m -2633.3612,-1197.4235 v 1.8521 h -1.5875 v -1.8521 h -0.7938 v 4.2333 h 0.7938 v -1.8521 h 1.5875 v 1.8521 h 0.7937 v -4.2333 z"
       inkscape:connector-curvature="0"
       style="fill:#444444;stroke-width:0.26458332" />
    <g
       id="g5366"
       transform="matrix(22.25423,0,0,22.25423,-4836.724,-2504.5858)">
      <path
         id="path5344"
         d="M 54,8 H 10 c -1.104,0 -2,0.896 -2,2 0,1.104 0.896,2 2,2 h 44 c 1.104,0 2,-0.896 2,-2 0,-1.104 -0.896,-2 -2,-2 z"
         inkscape:connector-curvature="0" />
      <path
         id="path5346"
         d="M 54,52 H 10 c -1.104,0 -2,0.896 -2,2 0,1.104 0.896,2 2,2 h 44 c 1.104,0 2,-0.896 2,-2 0,-1.104 -0.896,-2 -2,-2 z"
         inkscape:connector-curvature="0" />
      <path
         id="path5348"
         d="m 46,23 c 1.104,0 2,-0.896 2,-2 0,-1.104 -0.896,-2 -2,-2 H 18 c -1.104,0 -2,0.896 -2,2 0,1.104 0.896,2 2,2 z"
         inkscape:connector-curvature="0" />
      <path
         id="path5350"
         d="M 54,30 H 10 c -1.104,0 -2,0.896 -2,2 0,1.104 0.896,2 2,2 h 44 c 1.104,0 2,-0.896 2,-2 0,-1.104 -0.896,-2 -2,-2 z"
         inkscape:connector-curvature="0" />
      <path
         id="path5352"
         d="m 46,45 c 1.104,0 2,-0.896 2,-2 0,-1.104 -0.896,-2 -2,-2 H 18 c -1.104,0 -2,0.896 -2,2 0,1.104 0.896,2 2,2 z"
         inkscape:connector-curvature="0" />
    </g>
  </g>
</svg>
