<?xml version="1.0" encoding="UTF-8" standalone="no"?>
<!-- Created with Inkscape (http://www.inkscape.org/) -->

<svg
   xmlns:dc="http://purl.org/dc/elements/1.1/"
   xmlns:cc="http://creativecommons.org/ns#"
   xmlns:rdf="http://www.w3.org/1999/02/22-rdf-syntax-ns#"
   xmlns:svg="http://www.w3.org/2000/svg"
   xmlns="http://www.w3.org/2000/svg"
   xmlns:sodipodi="http://sodipodi.sourceforge.net/DTD/sodipodi-0.dtd"
   xmlns:inkscape="http://www.inkscape.org/namespaces/inkscape"
   width="1205.6406mm"
   height="1076.9187mm"
   viewBox="0 0 1205.6406 1076.9187"
   version="1.1"
   id="svg8"
   sodipodi:docname="code.svg"
   inkscape:version="0.92.3 (2405546, 2018-03-11)">
  <defs
     id="defs2" />
  <sodipodi:namedview
     id="base"
     pagecolor="#ffffff"
     bordercolor="#666666"
     borderopacity="1.0"
     inkscape:pageopacity="0.0"
     inkscape:pageshadow="2"
     inkscape:zoom="0.015467961"
     inkscape:cx="8714.188"
     inkscape:cy="-10417.094"
     inkscape:document-units="mm"
     inkscape:current-layer="layer1"
     showgrid="false"
     inkscape:window-width="1920"
     inkscape:window-height="1015"
     inkscape:window-x="0"
     inkscape:window-y="36"
     inkscape:window-maximized="1" />
  <metadata
     id="metadata5">
    <rdf:RDF>
      <cc:Work
         rdf:about="">
        <dc:format>image/svg+xml</dc:format>
        <dc:type
           rdf:resource="http://purl.org/dc/dcmitype/StillImage" />
        <dc:title></dc:title>
      </cc:Work>
    </rdf:RDF>
  </metadata>
  <g
     inkscape:label="Layer 1"
     inkscape:groupmode="layer"
     id="layer1"
     transform="translate(4727.409,2330.9098)">
    <g
       id="g4927"
       transform="matrix(65.936105,0,0,65.936105,-4652.0775,-2319.9393)">
      <path
         id="path4913"
         d="M 2.1,3.1 C 2.3,4.4 2.5,4.7 2.5,6 2.5,6.8 1,7.5 1,7.5 v 1 c 0,0 1.5,0.7 1.5,1.5 0,1.3 -0.2,1.6 -0.4,2.9 C 1.8,15 2.9,16 3.9,16 4.9,16 6,16 6,16 V 14 C 6,14 4.2,14.2 4.2,13 4.2,12.1 4.4,12.1 4.6,10.1 4.7,9.2 4.1,8.5 3.5,8 4.1,7.5 4.7,6.9 4.6,6 4.3,4 4.2,4 4.2,3.1 4.2,1.9 6,2 6,2 V 0 C 6,0 5,0 3.9,0 2.8,0 1.8,1 2.1,3.1 Z"
         inkscape:connector-curvature="0"
         style="fill:#000000;fill-opacity:1" />
      <path
         id="path4915"
         d="M 13.9,3.1 C 13.7,4.4 13.5,4.7 13.5,6 13.5,6.8 15,7.5 15,7.5 v 1 c 0,0 -1.5,0.7 -1.5,1.5 0,1.3 0.2,1.6 0.4,2.9 0.3,2.1 -0.8,3.1 -1.8,3.1 -1,0 -2.1,0 -2.1,0 v -2 c 0,0 1.8,0.2 1.8,-1 0,-0.9 -0.2,-0.9 -0.4,-2.9 C 11.3,9.2 11.9,8.5 12.5,8 11.9,7.5 11.3,6.9 11.4,6 11.6,4 11.8,4 11.8,3.1 11.8,1.9 10,2 10,2 V 0 c 0,0 1,0 2.1,0 1.1,0 2.1,1 1.8,3.1 z"
         inkscape:connector-curvature="0"
         style="fill:#000000;fill-opacity:1" />
    </g>
  </g>
</svg>
