<?xml version="1.0" encoding="UTF-8" standalone="no"?>
<!-- Created with Inkscape (http://www.inkscape.org/) -->

<svg
   xmlns:dc="http://purl.org/dc/elements/1.1/"
   xmlns:cc="http://creativecommons.org/ns#"
   xmlns:rdf="http://www.w3.org/1999/02/22-rdf-syntax-ns#"
   xmlns:svg="http://www.w3.org/2000/svg"
   xmlns="http://www.w3.org/2000/svg"
   xmlns:sodipodi="http://sodipodi.sourceforge.net/DTD/sodipodi-0.dtd"
   xmlns:inkscape="http://www.inkscape.org/namespaces/inkscape"
   width="1205.6406mm"
   height="1076.9187mm"
   viewBox="0 0 1205.6406 1076.9187"
   version="1.1"
   id="svg8"
   sodipodi:docname="img.svg"
   inkscape:version="0.92.3 (2405546, 2018-03-11)">
  <defs
     id="defs2" />
  <sodipodi:namedview
     id="base"
     pagecolor="#ffffff"
     bordercolor="#666666"
     borderopacity="1.0"
     inkscape:pageopacity="0.0"
     inkscape:pageshadow="2"
     inkscape:zoom="0.021875"
     inkscape:cx="14503.663"
     inkscape:cy="-6844.2054"
     inkscape:document-units="mm"
     inkscape:current-layer="layer1"
     showgrid="false"
     inkscape:window-width="1920"
     inkscape:window-height="1015"
     inkscape:window-x="0"
     inkscape:window-y="36"
     inkscape:window-maximized="1" />
  <metadata
     id="metadata5">
    <rdf:RDF>
      <cc:Work
         rdf:about="">
        <dc:format>image/svg+xml</dc:format>
        <dc:type
           rdf:resource="http://purl.org/dc/dcmitype/StillImage" />
        <dc:title></dc:title>
      </cc:Work>
    </rdf:RDF>
  </metadata>
  <g
     inkscape:label="Layer 1"
     inkscape:groupmode="layer"
     id="layer1"
     transform="translate(4727.409,2330.9098)">
    <g
       id="g4785"
       transform="matrix(2.8615058,0,0,2.8615058,-4724.3603,-2392.2221)">
      <g
         id="g4725">
	<g
   id="g4723">
		<g
   id="g4721">
			<circle
   id="circle4715"
   r="28.799999"
   cy="144.39999"
   cx="158" />

			<path
   id="path4717"
   d="M 394.4,250.4 C 380.8,237.6 363.6,229.2 344.8,226.8 V 80.4 c 0,-15.6 -6.4,-29.6 -16.4,-40 C 318,30 304,24 288.4,24 H 56.4 C 40.8,24 26.8,30.4 16.4,40.4 6,50.8 0,64.8 0,80.4 v 184.4 17.2 37.2 c 0,15.6 6.4,29.6 16.4,40 10.4,10.4 24.4,16.4 40,16.4 h 224.4 c 14.8,12 33.2,19.6 53.6,19.6 23.6,0 44.8,-9.6 60,-24.8 15.2,-15.2 24.8,-36.4 24.8,-60 0,-23.6 -9.6,-44.8 -24.8,-60 z M 21.2,80.4 C 21.2,70.8 25.2,62 31.6,55.6 38,49.2 46.8,45.2 56.4,45.2 h 232 c 9.6,0 18.4,4 24.8,10.4 6.4,6.4 10.4,15.2 10.4,24.8 v 124.8 l -59.2,-58.8 c -4,-4 -10.8,-4.4 -15.2,0 L 160,236 99.6,175.2 c -4,-4 -10.8,-4.4 -15.2,0 l -63.2,64 V 80.4 Z M 56,354.8 v -0.4 c -9.6,0 -18.4,-4 -24.8,-10.4 -6,-6.4 -10,-15.2 -10,-24.8 V 282 269.2 l 71.2,-71.2 60.4,60.4 c 4,4 10.8,4 15.2,0 l 89.2,-89.6 58.4,58.8 c -1.2,0.4 -2.4,0.8 -3.6,1.2 -1.6,0.4 -3.2,0.8 -5.2,1.6 -1.6,0.4 -3.2,1.2 -4.8,1.6 -1.2,0.4 -2,0.8 -3.2,1.6 -1.6,0.8 -2.8,1.2 -4,2 -2,1.2 -4,2.4 -6,3.6 -1.2,0.8 -2,1.2 -3.2,2 -0.8,0.4 -1.2,0.8 -2,1.2 -3.6,2.4 -6.8,5.2 -9.6,8.4 -15.2,15.2 -24.8,36.4 -24.8,60 0,6 0.8,11.6 2,17.6 0.4,1.6 0.8,2.8 1.2,4.4 1.2,4 2.4,8 4,12 v 0.4 c 1.6,3.2 3.2,6.8 5.2,9.6 H 56 Z m 322.8,0.4 c -11.6,11.6 -27.2,18.4 -44.8,18.4 -16.8,0 -32.4,-6.8 -43.6,-17.6 -1.6,-1.6 -3.2,-3.6 -4.8,-5.2 -1.2,-1.2 -2.4,-2.8 -3.6,-4 -1.6,-2 -2.8,-4.4 -4,-6.8 -0.8,-1.6 -1.6,-2.8 -2.4,-4.4 -0.8,-2 -1.6,-4.4 -2,-6.8 -0.4,-1.6 -1.2,-3.6 -1.6,-5.2 -0.8,-4 -1.2,-8.4 -1.2,-12.8 0,-17.6 7.2,-33.2 18.4,-44.8 11.6,-11.6 27.2,-18.4 44.8,-18.4 17.6,0 33.2,7.2 44.8,18.4 11.6,11.2 18.4,27.2 18.4,44.8 0,17.2 -7.2,32.8 -18.4,44.4 z"
   inkscape:connector-curvature="0" />

			<path
   id="path4719"
   d="m 368.8,299.6 h -24.4 v -24.4 c 0,-6 -4.8,-10.8 -10.8,-10.8 -6,0 -10.8,4.8 -10.8,10.8 v 24.4 h -24.4 c -6,0 -10.8,4.8 -10.8,10.8 0,6 4.8,10.8 10.8,10.8 h 24.4 v 24.4 c 0,6 4.8,10.8 10.8,10.8 6,0 10.8,-4.8 10.8,-10.8 v -24.4 h 24.4 c 6,0 10.8,-4.8 10.8,-10.8 0,-6 -4.8,-10.8 -10.8,-10.8 z"
   inkscape:connector-curvature="0" />

		</g>

	</g>

</g>
      <g
         id="g4727">
</g>
      <g
         id="g4729">
</g>
      <g
         id="g4731">
</g>
      <g
         id="g4733">
</g>
      <g
         id="g4735">
</g>
      <g
         id="g4737">
</g>
      <g
         id="g4739">
</g>
      <g
         id="g4741">
</g>
      <g
         id="g4743">
</g>
      <g
         id="g4745">
</g>
      <g
         id="g4747">
</g>
      <g
         id="g4749">
</g>
      <g
         id="g4751">
</g>
      <g
         id="g4753">
</g>
      <g
         id="g4755">
</g>
    </g>
  </g>
</svg>
