<?xml version="1.0" encoding="UTF-8" standalone="no"?>
<!-- Created with Inkscape (http://www.inkscape.org/) -->

<svg
   xmlns:dc="http://purl.org/dc/elements/1.1/"
   xmlns:cc="http://creativecommons.org/ns#"
   xmlns:rdf="http://www.w3.org/1999/02/22-rdf-syntax-ns#"
   xmlns:svg="http://www.w3.org/2000/svg"
   xmlns="http://www.w3.org/2000/svg"
   xmlns:sodipodi="http://sodipodi.sourceforge.net/DTD/sodipodi-0.dtd"
   xmlns:inkscape="http://www.inkscape.org/namespaces/inkscape"
   width="1205.6406mm"
   height="1076.9187mm"
   viewBox="0 0 1205.6406 1076.9187"
   version="1.1"
   id="svg8"
   sodipodi:docname="italic.svg"
   inkscape:version="0.92.3 (2405546, 2018-03-11)">
  <defs
     id="defs2" />
  <sodipodi:namedview
     id="base"
     pagecolor="#ffffff"
     bordercolor="#666666"
     borderopacity="1.0"
     inkscape:pageopacity="0.0"
     inkscape:pageshadow="2"
     inkscape:zoom="0.021875"
     inkscape:cx="4108.4118"
     inkscape:cy="-3136.4748"
     inkscape:document-units="mm"
     inkscape:current-layer="layer1"
     showgrid="false"
     inkscape:window-width="1920"
     inkscape:window-height="1015"
     inkscape:window-x="0"
     inkscape:window-y="36"
     inkscape:window-maximized="1" />
  <metadata
     id="metadata5">
    <rdf:RDF>
      <cc:Work
         rdf:about="">
        <dc:format>image/svg+xml</dc:format>
        <dc:type
           rdf:resource="http://purl.org/dc/dcmitype/StillImage" />
        <dc:title></dc:title>
      </cc:Work>
    </rdf:RDF>
  </metadata>
  <g
     inkscape:label="Layer 1"
     inkscape:groupmode="layer"
     id="layer1"
     transform="translate(4727.409,2330.9098)">
    <g
       id="g5196"
       transform="matrix(11.009181,0,0,11.009181,-4663.2768,-2331.1352)">
      <g
         id="g5140">
        <path
           id="path5138"
           d="M 87.494,0.763 C 87.115,0.282 86.535,0 85.923,0 H 32.411 c -0.924,0 -1.727,0.632 -1.944,1.53 l -2.204,9.115 c -0.144,0.596 -0.007,1.225 0.373,1.707 0.379,0.481 0.958,0.763 1.571,0.763 H 49.01 L 31.81,84.746 H 14.145 c -0.924,0 -1.727,0.633 -1.944,1.529 L 9.996,95.39 c -0.144,0.597 -0.007,1.226 0.373,1.707 0.379,0.481 0.958,0.764 1.571,0.764 h 53.512 c 0.924,0 1.727,-0.633 1.943,-1.53 l 2.204,-9.114 C 69.743,86.62 69.606,85.991 69.226,85.51 68.847,85.029 68.268,84.746 67.655,84.746 H 49.133 L 66.332,13.115 h 17.385 c 0.924,0 1.727,-0.632 1.943,-1.529 L 87.865,2.471 C 88.01,1.874 87.873,1.245 87.494,0.763 Z"
           inkscape:connector-curvature="0" />
      </g>
      <g
         id="g5142" />
      <g
         id="g5144" />
      <g
         id="g5146" />
      <g
         id="g5148" />
      <g
         id="g5150" />
      <g
         id="g5152" />
      <g
         id="g5154" />
      <g
         id="g5156" />
      <g
         id="g5158" />
      <g
         id="g5160" />
      <g
         id="g5162" />
      <g
         id="g5164" />
      <g
         id="g5166" />
      <g
         id="g5168" />
      <g
         id="g5170" />
    </g>
  </g>
</svg>
