<?xml version="1.0" encoding="UTF-8" standalone="no"?>
<!-- Created with Inkscape (http://www.inkscape.org/) -->

<svg
   xmlns:dc="http://purl.org/dc/elements/1.1/"
   xmlns:cc="http://creativecommons.org/ns#"
   xmlns:rdf="http://www.w3.org/1999/02/22-rdf-syntax-ns#"
   xmlns:svg="http://www.w3.org/2000/svg"
   xmlns="http://www.w3.org/2000/svg"
   xmlns:sodipodi="http://sodipodi.sourceforge.net/DTD/sodipodi-0.dtd"
   xmlns:inkscape="http://www.inkscape.org/namespaces/inkscape"
   width="1205.6406mm"
   height="1076.9187mm"
   viewBox="0 0 1205.6406 1076.9187"
   version="1.1"
   id="svg8"
   sodipodi:docname="link.svg"
   inkscape:version="0.92.3 (2405546, 2018-03-11)">
  <defs
     id="defs2" />
  <sodipodi:namedview
     id="base"
     pagecolor="#ffffff"
     bordercolor="#666666"
     borderopacity="1.0"
     inkscape:pageopacity="0.0"
     inkscape:pageshadow="2"
     inkscape:zoom="0.021875"
     inkscape:cx="-13939.526"
     inkscape:cy="338.36828"
     inkscape:document-units="mm"
     inkscape:current-layer="layer1"
     showgrid="false"
     inkscape:window-width="1920"
     inkscape:window-height="1015"
     inkscape:window-x="0"
     inkscape:window-y="36"
     inkscape:window-maximized="1" />
  <metadata
     id="metadata5">
    <rdf:RDF>
      <cc:Work
         rdf:about="">
        <dc:format>image/svg+xml</dc:format>
        <dc:type
           rdf:resource="http://purl.org/dc/dcmitype/StillImage" />
        <dc:title></dc:title>
      </cc:Work>
    </rdf:RDF>
  </metadata>
  <g
     inkscape:label="Layer 1"
     inkscape:groupmode="layer"
     id="layer1"
     transform="translate(4727.409,2330.9098)">
    <g
       id="g4399"
       transform="matrix(0.26458333,0,0,0.26458333,-2637.6842,-1198.8359)">
      <g
         id="g4328">
        <path
           id="path4296"
           d="m 26.105,21.891 c -0.229,0 -0.439,-0.131 -0.529,-0.346 v 0 c -0.066,-0.156 -1.716,-3.857 -7.885,-4.59 -1.285,-0.156 -2.824,-0.236 -4.693,-0.25 v 4.613 c 0,0.213 -0.115,0.406 -0.304,0.508 -0.188,0.098 -0.413,0.084 -0.588,-0.033 L 0.254,13.815 C 0.094,13.708 0,13.528 0,13.339 0,13.148 0.094,12.974 0.254,12.862 L 12.111,4.883 c 0.175,-0.121 0.398,-0.129 0.588,-0.029 0.19,0.102 0.303,0.295 0.303,0.502 v 4.293 c 2.578,0.336 13.674,2.33 13.674,11.674 0,0.271 -0.191,0.508 -0.459,0.562 -0.037,0.006 -0.076,0.006 -0.112,0.006 z"
           inkscape:connector-curvature="0" />
        <g
           id="g4298" />
        <g
           id="g4300" />
        <g
           id="g4302" />
        <g
           id="g4304" />
        <g
           id="g4306" />
        <g
           id="g4308" />
        <g
           id="g4310" />
        <g
           id="g4312" />
        <g
           id="g4314" />
        <g
           id="g4316" />
        <g
           id="g4318" />
        <g
           id="g4320" />
        <g
           id="g4322" />
        <g
           id="g4324" />
        <g
           id="g4326" />
      </g>
      <g
         id="g4330" />
      <g
         id="g4332" />
      <g
         id="g4334" />
      <g
         id="g4336" />
      <g
         id="g4338" />
      <g
         id="g4340" />
      <g
         id="g4342" />
      <g
         id="g4344" />
      <g
         id="g4346" />
      <g
         id="g4348" />
      <g
         id="g4350" />
      <g
         id="g4352" />
      <g
         id="g4354" />
      <g
         id="g4356" />
      <g
         id="g4358" />
    </g>
    <g
       id="g4465"
       transform="matrix(0.26458333,0,0,0.26458333,-2636.8931,-1198.0448)">
      <g
         id="g4407">
        <g
           id="g4405">
          <g
             id="g4403">
            <path
               id="path4401"
               d="M 0.358,16.978 C 0.148,16.934 0,16.752 0,16.542 0,9.289 8.61,7.744 10.61,7.483 V 4.155 c 0,-0.164 0.09,-0.314 0.235,-0.393 0.147,-0.076 0.321,-0.065 0.456,0.024 l 9.202,6.194 c 0.121,0.082 0.194,0.218 0.194,0.369 0,0.147 -0.073,0.284 -0.194,0.366 l -9.197,6.193 c -0.137,0.09 -0.313,0.1 -0.457,0.023 -0.146,-0.078 -0.236,-0.229 -0.236,-0.394 v -3.58 C 9.166,12.966 7.968,13.03 6.971,13.15 2.186,13.717 0.907,16.59 0.855,16.713 v 0 c -0.071,0.165 -0.233,0.271 -0.41,0.271 -0.03,0.002 -0.06,0 -0.087,-0.006 z"
               style="fill:#030104"
               inkscape:connector-curvature="0" />
          </g>
        </g>
      </g>
      <g
         id="g4409" />
      <g
         id="g4411" />
      <g
         id="g4413" />
      <g
         id="g4415" />
      <g
         id="g4417" />
      <g
         id="g4419" />
      <g
         id="g4421" />
      <g
         id="g4423" />
      <g
         id="g4425" />
      <g
         id="g4427" />
      <g
         id="g4429" />
      <g
         id="g4431" />
      <g
         id="g4433" />
      <g
         id="g4435" />
      <g
         id="g4437" />
    </g>
    <path
       id="path4545"
       d="m -2633.3612,-1197.4235 v 1.8521 h -1.5875 v -1.8521 h -0.7938 v 4.2333 h 0.7938 v -1.8521 h 1.5875 v 1.8521 h 0.7937 v -4.2333 z"
       inkscape:connector-curvature="0"
       style="fill:#444444;stroke-width:0.26458332" />
    <g
       id="g5122"
       transform="matrix(2.0940708,0,0,2.0940708,-4660.7675,-2328.6289)">
      <g
         id="g5056">
        <g
           id="g5054">
          <path
             id="path5052"
             d="m 312.453,199.601 c -6.066,-6.102 -12.792,-11.511 -20.053,-16.128 -19.232,-12.315 -41.59,-18.859 -64.427,-18.859 -31.697,-0.059 -62.106,12.535 -84.48,34.987 L 34.949,308.23 c -22.336,22.379 -34.89,52.7 -34.91,84.318 -0.042,65.98 53.41,119.501 119.39,119.543 31.648,0.11 62.029,-12.424 84.395,-34.816 l 89.6,-89.6 c 1.628,-1.614 2.537,-3.816 2.524,-6.108 -0.027,-4.713 -3.87,-8.511 -8.583,-8.484 h -3.413 c -18.72,0.066 -37.273,-3.529 -54.613,-10.581 -3.195,-1.315 -6.867,-0.573 -9.301,1.877 l -64.427,64.512 c -20.006,20.006 -52.442,20.006 -72.448,0 -20.006,-20.006 -20.006,-52.442 0,-72.448 L 192.134,247.558 c 19.99,-19.965 52.373,-19.965 72.363,0 13.472,12.679 34.486,12.679 47.957,0 5.796,-5.801 9.31,-13.495 9.899,-21.675 0.623,-9.775 -2.982,-19.348 -9.9,-26.282 z"
             inkscape:connector-curvature="0" />
        </g>
      </g>
      <g
         id="g5062">
        <g
           id="g5060">
          <path
             id="path5058"
             d="m 477.061,34.993 c -46.657,-46.657 -122.303,-46.657 -168.96,0 l -89.515,89.429 c -2.458,2.47 -3.167,6.185 -1.792,9.387 1.359,3.211 4.535,5.272 8.021,5.205 h 3.157 c 18.698,-0.034 37.221,3.589 54.528,10.667 3.195,1.315 6.867,0.573 9.301,-1.877 l 64.256,-64.171 c 20.006,-20.006 52.442,-20.006 72.448,0 20.006,20.006 20.006,52.442 0,72.448 l -80.043,79.957 -0.683,0.768 -27.989,27.819 c -19.99,19.965 -52.373,19.965 -72.363,0 -13.472,-12.679 -34.486,-12.679 -47.957,0 -5.833,5.845 -9.35,13.606 -9.899,21.845 -0.624,9.775 2.981,19.348 9.899,26.283 9.877,9.919 21.433,18.008 34.133,23.893 1.792,0.853 3.584,1.536 5.376,2.304 1.792,0.768 3.669,1.365 5.461,2.048 1.792,0.683 3.669,1.28 5.461,1.792 l 5.035,1.365 c 3.413,0.853 6.827,1.536 10.325,2.133 4.214,0.626 8.458,1.025 12.715,1.195 h 5.973 0.512 l 5.12,-0.597 c 1.877,-0.085 3.84,-0.512 6.059,-0.512 h 2.901 l 5.888,-0.853 2.731,-0.512 4.949,-1.024 h 0.939 c 20.961,-5.265 40.101,-16.118 55.381,-31.403 L 477.058,203.953 c 46.66,-46.657 46.66,-122.303 0.003,-168.96 z"
             inkscape:connector-curvature="0" />
        </g>
      </g>
      <g
         id="g5064" />
      <g
         id="g5066" />
      <g
         id="g5068" />
      <g
         id="g5070" />
      <g
         id="g5072" />
      <g
         id="g5074" />
      <g
         id="g5076" />
      <g
         id="g5078" />
      <g
         id="g5080" />
      <g
         id="g5082" />
      <g
         id="g5084" />
      <g
         id="g5086" />
      <g
         id="g5088" />
      <g
         id="g5090" />
      <g
         id="g5092" />
    </g>
  </g>
</svg>
