<?xml version="1.0" encoding="UTF-8" standalone="no"?>
<!-- Created with Inkscape (http://www.inkscape.org/) -->

<svg
   xmlns:dc="http://purl.org/dc/elements/1.1/"
   xmlns:cc="http://creativecommons.org/ns#"
   xmlns:rdf="http://www.w3.org/1999/02/22-rdf-syntax-ns#"
   xmlns:svg="http://www.w3.org/2000/svg"
   xmlns="http://www.w3.org/2000/svg"
   xmlns:sodipodi="http://sodipodi.sourceforge.net/DTD/sodipodi-0.dtd"
   xmlns:inkscape="http://www.inkscape.org/namespaces/inkscape"
   width="1205.6406mm"
   height="1076.9187mm"
   viewBox="0 0 1205.6406 1076.9187"
   version="1.1"
   id="svg8"
   sodipodi:docname="list.svg"
   inkscape:version="0.92.3 (2405546, 2018-03-11)">
  <defs
     id="defs2" />
  <sodipodi:namedview
     id="base"
     pagecolor="#ffffff"
     bordercolor="#666666"
     borderopacity="1.0"
     inkscape:pageopacity="0.0"
     inkscape:pageshadow="2"
     inkscape:zoom="0.021875"
     inkscape:cx="-5116.4693"
     inkscape:cy="-6137.7938"
     inkscape:document-units="mm"
     inkscape:current-layer="layer1"
     showgrid="false"
     inkscape:window-width="1920"
     inkscape:window-height="1015"
     inkscape:window-x="0"
     inkscape:window-y="36"
     inkscape:window-maximized="1" />
  <metadata
     id="metadata5">
    <rdf:RDF>
      <cc:Work
         rdf:about="">
        <dc:format>image/svg+xml</dc:format>
        <dc:type
           rdf:resource="http://purl.org/dc/dcmitype/StillImage" />
        <dc:title></dc:title>
      </cc:Work>
    </rdf:RDF>
  </metadata>
  <g
     inkscape:label="Layer 1"
     inkscape:groupmode="layer"
     id="layer1"
     transform="translate(4727.409,2330.9098)">
    <g
       id="g4629"
       transform="matrix(19.24268,0,0,19.24268,-4703.0525,-2370.9239)">
      <g
         id="g4568">
        <path
           id="path4556"
           d="M 57.124,51.893 H 16.92 c -1.657,0 -3,-1.343 -3,-3 0,-1.657 1.343,-3 3,-3 h 40.203 c 1.657,0 3,1.343 3,3 0,1.657 -1.342,3 -2.999,3 z"
           inkscape:connector-curvature="0" />
        <path
           id="path4558"
           d="M 57.124,33.062 H 16.92 c -1.657,0 -3,-1.343 -3,-3 0,-1.657 1.343,-3 3,-3 h 40.203 c 1.657,0 3,1.343 3,3 0.001,1.657 -1.342,3 -2.999,3 z"
           inkscape:connector-curvature="0" />
        <path
           id="path4560"
           d="M 57.124,14.231 H 16.92 c -1.657,0 -3,-1.343 -3,-3 0,-1.657 1.343,-3 3,-3 h 40.203 c 1.657,0 3,1.343 3,3 0,1.657 -1.342,3 -2.999,3 z"
           inkscape:connector-curvature="0" />
        <circle
           id="circle4562"
           r="4.0289998"
           cy="11.463"
           cx="4.0289998" />
        <circle
           id="circle4564"
           r="4.0289998"
           cy="30.062"
           cx="4.0289998" />
        <circle
           id="circle4566"
           r="4.0289998"
           cy="48.660999"
           cx="4.0289998" />
      </g>
      <g
         id="g4570" />
      <g
         id="g4572" />
      <g
         id="g4574" />
      <g
         id="g4576" />
      <g
         id="g4578" />
      <g
         id="g4580" />
      <g
         id="g4582" />
      <g
         id="g4584" />
      <g
         id="g4586" />
      <g
         id="g4588" />
      <g
         id="g4590" />
      <g
         id="g4592" />
      <g
         id="g4594" />
      <g
         id="g4596" />
      <g
         id="g4598" />
    </g>
  </g>
</svg>
