<?xml version="1.0" encoding="UTF-8" standalone="no"?>
<!-- Created with Inkscape (http://www.inkscape.org/) -->

<svg
   xmlns:dc="http://purl.org/dc/elements/1.1/"
   xmlns:cc="http://creativecommons.org/ns#"
   xmlns:rdf="http://www.w3.org/1999/02/22-rdf-syntax-ns#"
   xmlns:svg="http://www.w3.org/2000/svg"
   xmlns="http://www.w3.org/2000/svg"
   xmlns:sodipodi="http://sodipodi.sourceforge.net/DTD/sodipodi-0.dtd"
   xmlns:inkscape="http://www.inkscape.org/namespaces/inkscape"
   width="1205.6406mm"
   height="1076.9187mm"
   viewBox="0 0 1205.6406 1076.9187"
   version="1.1"
   id="svg8"
   sodipodi:docname="lists1.svg"
   inkscape:version="0.92.3 (2405546, 2018-03-11)">
  <defs
     id="defs2" />
  <sodipodi:namedview
     id="base"
     pagecolor="#ffffff"
     bordercolor="#666666"
     borderopacity="1.0"
     inkscape:pageopacity="0.0"
     inkscape:pageshadow="2"
     inkscape:zoom="0.021875"
     inkscape:cx="449.03563"
     inkscape:cy="-1273.0088"
     inkscape:document-units="mm"
     inkscape:current-layer="layer1"
     showgrid="false"
     inkscape:window-width="1920"
     inkscape:window-height="1015"
     inkscape:window-x="0"
     inkscape:window-y="36"
     inkscape:window-maximized="1" />
  <metadata
     id="metadata5">
    <rdf:RDF>
      <cc:Work
         rdf:about="">
        <dc:format>image/svg+xml</dc:format>
        <dc:type
           rdf:resource="http://purl.org/dc/dcmitype/StillImage" />
        <dc:title></dc:title>
      </cc:Work>
    </rdf:RDF>
  </metadata>
  <g
     inkscape:label="Layer 1"
     inkscape:groupmode="layer"
     id="layer1"
     transform="translate(4727.409,2330.9098)">
    <g
       id="g4713"
       transform="matrix(2.0603005,0,0,2.0603005,-4652.0256,-2319.8874)">
      <g
         id="g4649">
        <g
           id="g4647">
          <g
             id="g4645">
            <path
               id="path4631"
               d="M 400,0 H 112 C 50.144,0 0,50.144 0,112 v 288 c 0,61.856 50.144,112 112,112 h 288 c 61.856,0 112,-50.144 112,-112 V 112 C 512,50.144 461.856,0 400,0 Z m 80,400 c 0,44.183 -35.817,80 -80,80 H 112 C 67.817,480 32,444.183 32,400 V 112 C 32,67.817 67.817,32 112,32 h 288 c 44.183,0 80,35.817 80,80 z"
               inkscape:connector-curvature="0" />
            <path
               id="path4633"
               d="m 160,112 h -32 c -8.837,0 -16,7.163 -16,16 v 32 c 0,8.837 7.163,16 16,16 h 32 c 8.837,0 16,-7.163 16,-16 v -32 c 0,-8.837 -7.163,-16 -16,-16 z"
               inkscape:connector-curvature="0" />
            <path
               id="path4635"
               d="m 160,224 h -32 c -8.837,0 -16,7.163 -16,16 v 32 c 0,8.837 7.163,16 16,16 h 32 c 8.837,0 16,-7.163 16,-16 v -32 c 0,-8.837 -7.163,-16 -16,-16 z"
               inkscape:connector-curvature="0" />
            <path
               id="path4637"
               d="m 160,336 h -32 c -8.837,0 -16,7.163 -16,16 v 32 c 0,8.837 7.163,16 16,16 h 32 c 8.837,0 16,-7.163 16,-16 v -32 c 0,-8.837 -7.163,-16 -16,-16 z"
               inkscape:connector-curvature="0" />
            <rect
               id="rect4639"
               height="32"
               width="192"
               y="128"
               x="208" />
            <rect
               id="rect4641"
               height="32"
               width="192"
               y="240"
               x="208" />
            <rect
               id="rect4643"
               height="32"
               width="192"
               y="352"
               x="208" />
          </g>
        </g>
      </g>
      <g
         id="g4651" />
      <g
         id="g4653" />
      <g
         id="g4655" />
      <g
         id="g4657" />
      <g
         id="g4659" />
      <g
         id="g4661" />
      <g
         id="g4663" />
      <g
         id="g4665" />
      <g
         id="g4667" />
      <g
         id="g4669" />
      <g
         id="g4671" />
      <g
         id="g4673" />
      <g
         id="g4675" />
      <g
         id="g4677" />
      <g
         id="g4679" />
    </g>
  </g>
</svg>
