<?xml version="1.0" encoding="UTF-8" standalone="no"?>
<!-- Created with Inkscape (http://www.inkscape.org/) -->

<svg
   xmlns:dc="http://purl.org/dc/elements/1.1/"
   xmlns:cc="http://creativecommons.org/ns#"
   xmlns:rdf="http://www.w3.org/1999/02/22-rdf-syntax-ns#"
   xmlns:svg="http://www.w3.org/2000/svg"
   xmlns="http://www.w3.org/2000/svg"
   xmlns:sodipodi="http://sodipodi.sourceforge.net/DTD/sodipodi-0.dtd"
   xmlns:inkscape="http://www.inkscape.org/namespaces/inkscape"
   width="1205.6406mm"
   height="1076.9187mm"
   viewBox="0 0 1205.6406 1076.9187"
   version="1.1"
   id="svg8"
   sodipodi:docname="quote.svg"
   inkscape:version="0.92.3 (2405546, 2018-03-11)">
  <defs
     id="defs2" />
  <sodipodi:namedview
     id="base"
     pagecolor="#ffffff"
     bordercolor="#666666"
     borderopacity="1.0"
     inkscape:pageopacity="0.0"
     inkscape:pageshadow="2"
     inkscape:zoom="0.021875"
     inkscape:cx="10116.461"
     inkscape:cy="-3999.2381"
     inkscape:document-units="mm"
     inkscape:current-layer="layer1"
     showgrid="false"
     inkscape:window-width="1920"
     inkscape:window-height="1015"
     inkscape:window-x="0"
     inkscape:window-y="36"
     inkscape:window-maximized="1" />
  <metadata
     id="metadata5">
    <rdf:RDF>
      <cc:Work
         rdf:about="">
        <dc:format>image/svg+xml</dc:format>
        <dc:type
           rdf:resource="http://purl.org/dc/dcmitype/StillImage" />
        <dc:title></dc:title>
      </cc:Work>
    </rdf:RDF>
  </metadata>
  <g
     inkscape:label="Layer 1"
     inkscape:groupmode="layer"
     id="layer1"
     transform="translate(4727.409,2330.9098)">
    <g
       id="g4911"
       transform="matrix(1.2210913,0,0,1.2210913,-4719.892,-2387.7546)">
      <g
         id="g4854">
	<path
   id="path4850"
   d="m 925.036,57.197 h -304 c -27.6,0 -50,22.4 -50,50 v 304 c 0,27.601 22.4,50 50,50 h 145.5 c -1.9,79.601 -20.4,143.3 -55.4,191.2 -27.6,37.8 -69.399,69.1 -125.3,93.8 -25.7,11.3 -36.8,41.7 -24.8,67.101 l 36,76 c 11.6,24.399 40.3,35.1 65.1,24.399 66.2,-28.6 122.101,-64.8 167.7,-108.8 55.601,-53.7 93.7,-114.3 114.3,-181.9 20.601,-67.6 30.9,-159.8 30.9,-276.8 v -239 c 0,-27.599 -22.401,-50 -50,-50 z"
   inkscape:connector-curvature="0" />

	<path
   id="path4852"
   d="m 106.036,913.497 c 65.4,-28.5 121,-64.699 166.9,-108.6 56.1,-53.7 94.4,-114.1 115,-181.2 20.6,-67.1 30.899,-159.6 30.899,-277.5 v -239 c 0,-27.6 -22.399,-50 -50,-50 h -304 c -27.6,0 -50,22.4 -50,50 v 304 c 0,27.601 22.4,50 50,50 h 145.5 c -1.9,79.601 -20.4,143.3 -55.4,191.2 -27.6,37.8 -69.4,69.1 -125.3,93.8 -25.7,11.3 -36.8,41.7 -24.8,67.101 l 35.9,75.8 c 11.601,24.399 40.501,35.2 65.301,24.399 z"
   inkscape:connector-curvature="0" />

</g>
      <g
         id="g4856">
</g>
      <g
         id="g4858">
</g>
      <g
         id="g4860">
</g>
      <g
         id="g4862">
</g>
      <g
         id="g4864">
</g>
      <g
         id="g4866">
</g>
      <g
         id="g4868">
</g>
      <g
         id="g4870">
</g>
      <g
         id="g4872">
</g>
      <g
         id="g4874">
</g>
      <g
         id="g4876">
</g>
      <g
         id="g4878">
</g>
      <g
         id="g4880">
</g>
      <g
         id="g4882">
</g>
      <g
         id="g4884">
</g>
    </g>
  </g>
</svg>
