<?xml version="1.0" encoding="UTF-8" standalone="no"?>
<!-- Created with Inkscape (http://www.inkscape.org/) -->

<svg
   xmlns:dc="http://purl.org/dc/elements/1.1/"
   xmlns:cc="http://creativecommons.org/ns#"
   xmlns:rdf="http://www.w3.org/1999/02/22-rdf-syntax-ns#"
   xmlns:svg="http://www.w3.org/2000/svg"
   xmlns="http://www.w3.org/2000/svg"
   xmlns:sodipodi="http://sodipodi.sourceforge.net/DTD/sodipodi-0.dtd"
   xmlns:inkscape="http://www.inkscape.org/namespaces/inkscape"
   width="1205.6406mm"
   height="1076.9187mm"
   viewBox="0 0 1205.6406 1076.9187"
   version="1.1"
   id="svg8"
   sodipodi:docname="section.svg"
   inkscape:version="0.92.3 (2405546, 2018-03-11)">
  <defs
     id="defs2" />
  <sodipodi:namedview
     id="base"
     pagecolor="#ffffff"
     bordercolor="#666666"
     borderopacity="1.0"
     inkscape:pageopacity="0.0"
     inkscape:pageshadow="2"
     inkscape:zoom="0.061871843"
     inkscape:cx="4188.6966"
     inkscape:cy="663.25094"
     inkscape:document-units="mm"
     inkscape:current-layer="layer1"
     showgrid="false"
     inkscape:window-width="1920"
     inkscape:window-height="1015"
     inkscape:window-x="0"
     inkscape:window-y="36"
     inkscape:window-maximized="1" />
  <metadata
     id="metadata5">
    <rdf:RDF>
      <cc:Work
         rdf:about="">
        <dc:format>image/svg+xml</dc:format>
        <dc:type
           rdf:resource="http://purl.org/dc/dcmitype/StillImage" />
        <dc:title></dc:title>
      </cc:Work>
    </rdf:RDF>
  </metadata>
  <g
     inkscape:label="Layer 1"
     inkscape:groupmode="layer"
     id="layer1"
     transform="translate(4727.409,2330.9098)">
    <g
       id="g4228"
       transform="matrix(1.103601,0,0,1.103601,-5296.6511,1084.6559)">
      <path
         id="path4214"
         d="M 335.76953,235.91406 V 108.32422 c 0,-2.78125 -1.15625,-5.43359 -3.19141,-7.32422 L 226.73437,2.675781 C 224.88672,0.957031 222.45312,0 219.92969,0 H 44.480469 c -24.289063,0.0273438 -43.972657,19.710938 -44,44 v 335.79297 c 0.027343,24.28906 19.710937,43.97265 44,44 H 199.86328 c 30.57813,45.125 87.14063,64.83594 139.14063,48.48828 52,-16.34766 87.10937,-64.88281 86.36328,-119.38672 -0.7461,-54.50391 -37.16797,-102.0625 -89.59766,-116.98047 z M 230.67187,33.628906 l 70.97657,65.9375 h -46.97657 c -13.24609,-0.01563 -23.98437,-10.753906 -24,-24 z M 44.480469,403.79297 c -13.25,-0.0156 -23.984375,-10.75391 -24,-24 V 44 c 0.01563,-13.25 10.75,-23.984375 24,-24 H 210.67187 v 55.566406 c 0.0273,24.289063 19.71094,43.972654 44,44.000004 h 61.10157 v 112.41796 c -34.90625,-3.92578 -69.83203,7.21094 -96.02344,30.6211 -26.19141,23.41015 -41.16016,56.875 -41.15625,92 -0.0156,16.92578 3.46875,33.67187 10.23437,49.1875 z M 301.98437,458 c -57.10156,0 -103.39453,-46.29297 -103.39453,-103.39453 0,-57.10156 46.29297,-103.39453 103.39453,-103.39453 57.10547,0 103.39454,46.29297 103.39454,103.39453 C 405.31641,411.68359 359.0625,457.93359 301.98437,458 Z m 0,0"
         inkscape:connector-curvature="0" />
      <path
         id="path4216"
         d="m 354.48828,342.94531 h -40.84375 v -40.84375 c 0,-5.52344 -4.47656,-10 -10,-10 -5.52344,0 -10,4.47656 -10,10 v 40.84375 h -40.84375 c -5.52344,0 -10,4.47656 -10,10 0,5.52344 4.47656,10 10,10 h 40.84375 v 46.375 c 0,5.52344 4.47656,10 10,10 5.52344,0 10,-4.47656 10,-10 v -46.375 h 40.84375 c 5.52344,0 10,-4.47656 10,-10 0,-5.51953 -4.47656,-10 -10,-10 z m 0,0"
         inkscape:connector-curvature="0" />
    </g>
    <g
       id="g4399"
       transform="matrix(0.26458333,0,0,0.26458333,-4801.4982,1280.7265)">
      <g
         id="g4328">
        <path
           id="path4296"
           d="m 26.105,21.891 c -0.229,0 -0.439,-0.131 -0.529,-0.346 v 0 c -0.066,-0.156 -1.716,-3.857 -7.885,-4.59 -1.285,-0.156 -2.824,-0.236 -4.693,-0.25 v 4.613 c 0,0.213 -0.115,0.406 -0.304,0.508 -0.188,0.098 -0.413,0.084 -0.588,-0.033 L 0.254,13.815 C 0.094,13.708 0,13.528 0,13.339 0,13.148 0.094,12.974 0.254,12.862 L 12.111,4.883 c 0.175,-0.121 0.398,-0.129 0.588,-0.029 0.19,0.102 0.303,0.295 0.303,0.502 v 4.293 c 2.578,0.336 13.674,2.33 13.674,11.674 0,0.271 -0.191,0.508 -0.459,0.562 -0.037,0.006 -0.076,0.006 -0.112,0.006 z"
           inkscape:connector-curvature="0" />
        <g
           id="g4298" />
        <g
           id="g4300" />
        <g
           id="g4302" />
        <g
           id="g4304" />
        <g
           id="g4306" />
        <g
           id="g4308" />
        <g
           id="g4310" />
        <g
           id="g4312" />
        <g
           id="g4314" />
        <g
           id="g4316" />
        <g
           id="g4318" />
        <g
           id="g4320" />
        <g
           id="g4322" />
        <g
           id="g4324" />
        <g
           id="g4326" />
      </g>
      <g
         id="g4330" />
      <g
         id="g4332" />
      <g
         id="g4334" />
      <g
         id="g4336" />
      <g
         id="g4338" />
      <g
         id="g4340" />
      <g
         id="g4342" />
      <g
         id="g4344" />
      <g
         id="g4346" />
      <g
         id="g4348" />
      <g
         id="g4350" />
      <g
         id="g4352" />
      <g
         id="g4354" />
      <g
         id="g4356" />
      <g
         id="g4358" />
    </g>
    <g
       id="g4465"
       transform="matrix(0.26458333,0,0,0.26458333,-4800.7071,1281.5176)">
      <g
         id="g4407">
        <g
           id="g4405">
          <g
             id="g4403">
            <path
               id="path4401"
               d="M 0.358,16.978 C 0.148,16.934 0,16.752 0,16.542 0,9.289 8.61,7.744 10.61,7.483 V 4.155 c 0,-0.164 0.09,-0.314 0.235,-0.393 0.147,-0.076 0.321,-0.065 0.456,0.024 l 9.202,6.194 c 0.121,0.082 0.194,0.218 0.194,0.369 0,0.147 -0.073,0.284 -0.194,0.366 l -9.197,6.193 c -0.137,0.09 -0.313,0.1 -0.457,0.023 -0.146,-0.078 -0.236,-0.229 -0.236,-0.394 v -3.58 C 9.166,12.966 7.968,13.03 6.971,13.15 2.186,13.717 0.907,16.59 0.855,16.713 v 0 c -0.071,0.165 -0.233,0.271 -0.41,0.271 -0.03,0.002 -0.06,0 -0.087,-0.006 z"
               style="fill:#030104"
               inkscape:connector-curvature="0" />
          </g>
        </g>
      </g>
      <g
         id="g4409" />
      <g
         id="g4411" />
      <g
         id="g4413" />
      <g
         id="g4415" />
      <g
         id="g4417" />
      <g
         id="g4419" />
      <g
         id="g4421" />
      <g
         id="g4423" />
      <g
         id="g4425" />
      <g
         id="g4427" />
      <g
         id="g4429" />
      <g
         id="g4431" />
      <g
         id="g4433" />
      <g
         id="g4435" />
      <g
         id="g4437" />
    </g>
    <g
       id="g4543"
       transform="matrix(1.5174043,0,0,1.5174043,-3929.1903,1949.9112)">
      <g
         id="g4481">
        <g
           id="g4479">
          <g
             id="g4477">
            <path
               id="path4467"
               d="M 501.333,170.667 H 10.667 C 4.771,170.667 0,175.438 0,181.333 v 21.333 c 0,5.896 4.771,10.667 10.667,10.667 h 490.667 c 5.896,0 10.667,-4.771 10.667,-10.667 V 181.333 C 512,175.438 507.229,170.667 501.333,170.667 Z"
               inkscape:connector-curvature="0" />
            <path
               id="path4469"
               d="M 309.333,298.667 H 10.667 C 4.771,298.667 0,303.438 0,309.333 v 21.333 c 0,5.896 4.771,10.667 10.667,10.667 h 298.667 c 5.896,0 10.667,-4.771 10.667,-10.667 V 309.333 C 320,303.438 315.229,298.667 309.333,298.667 Z"
               inkscape:connector-curvature="0" />
            <path
               id="path4471"
               d="M 309.333,426.667 H 10.667 C 4.771,426.667 0,431.438 0,437.333 v 21.333 c 0,5.896 4.771,10.667 10.667,10.667 h 298.667 c 5.896,0 10.667,-4.771 10.667,-10.667 V 437.333 C 320,431.438 315.229,426.667 309.333,426.667 Z"
               inkscape:connector-curvature="0" />
            <path
               id="path4473"
               d="M 501.333,42.667 H 74.667 C 68.771,42.667 64,47.438 64,53.333 v 21.333 c 0,5.896 4.771,10.667 10.667,10.667 h 426.667 c 5.896,0 10.667,-4.771 10.667,-10.667 V 53.333 C 512,47.438 507.229,42.667 501.333,42.667 Z"
               inkscape:connector-curvature="0" />
            <path
               id="path4475"
               d="m 501.333,277.333 h -64 H 416 c -29.406,0 -53.333,23.927 -53.333,53.333 0,29.406 23.927,53.334 53.333,53.334 h 10.667 v 74.667 c 0,5.896 4.771,10.667 10.667,10.667 5.896,0 10.667,-4.771 10.667,-10.667 v -160 h 21.333 v 160 c 0,5.896 4.771,10.667 10.667,10.667 5.896,0 10.667,-4.771 10.667,-10.667 v -160 h 10.667 c 5.896,0 10.667,-4.771 10.667,-10.667 0,-5.896 -4.773,-10.667 -10.669,-10.667 z"
               inkscape:connector-curvature="0" />
          </g>
        </g>
      </g>
      <g
         id="g4483" />
      <g
         id="g4485" />
      <g
         id="g4487" />
      <g
         id="g4489" />
      <g
         id="g4491" />
      <g
         id="g4493" />
      <g
         id="g4495" />
      <g
         id="g4497" />
      <g
         id="g4499" />
      <g
         id="g4501" />
      <g
         id="g4503" />
      <g
         id="g4505" />
      <g
         id="g4507" />
      <g
         id="g4509" />
      <g
         id="g4511" />
    </g>
    <path
       id="path4545"
       d="m -4797.1753,1282.1389 v 1.8521 h -1.5875 v -1.8521 h -0.7938 v 4.2333 h 0.7938 v -1.8521 h 1.5875 v 1.8521 h 0.7937 v -4.2333 z"
       inkscape:connector-curvature="0"
       style="fill:#444444;stroke-width:0.26458332" />
    <g
       id="g4629"
       transform="matrix(10.435611,0,0,10.435611,-4904.278,2408.152)">
      <g
         id="g4568">
        <path
           id="path4556"
           d="M 57.124,51.893 H 16.92 c -1.657,0 -3,-1.343 -3,-3 0,-1.657 1.343,-3 3,-3 h 40.203 c 1.657,0 3,1.343 3,3 0,1.657 -1.342,3 -2.999,3 z"
           inkscape:connector-curvature="0" />
        <path
           id="path4558"
           d="M 57.124,33.062 H 16.92 c -1.657,0 -3,-1.343 -3,-3 0,-1.657 1.343,-3 3,-3 h 40.203 c 1.657,0 3,1.343 3,3 0.001,1.657 -1.342,3 -2.999,3 z"
           inkscape:connector-curvature="0" />
        <path
           id="path4560"
           d="M 57.124,14.231 H 16.92 c -1.657,0 -3,-1.343 -3,-3 0,-1.657 1.343,-3 3,-3 h 40.203 c 1.657,0 3,1.343 3,3 0,1.657 -1.342,3 -2.999,3 z"
           inkscape:connector-curvature="0" />
        <circle
           id="circle4562"
           r="4.0289998"
           cy="11.463"
           cx="4.0289998" />
        <circle
           id="circle4564"
           r="4.0289998"
           cy="30.062"
           cx="4.0289998" />
        <circle
           id="circle4566"
           r="4.0289998"
           cy="48.660999"
           cx="4.0289998" />
      </g>
      <g
         id="g4570" />
      <g
         id="g4572" />
      <g
         id="g4574" />
      <g
         id="g4576" />
      <g
         id="g4578" />
      <g
         id="g4580" />
      <g
         id="g4582" />
      <g
         id="g4584" />
      <g
         id="g4586" />
      <g
         id="g4588" />
      <g
         id="g4590" />
      <g
         id="g4592" />
      <g
         id="g4594" />
      <g
         id="g4596" />
      <g
         id="g4598" />
    </g>
    <g
       id="g4713"
       transform="matrix(1.0747441,0,0,1.0747441,-5443.0046,1686.9167)">
      <g
         id="g4649">
        <g
           id="g4647">
          <g
             id="g4645">
            <path
               id="path4631"
               d="M 400,0 H 112 C 50.144,0 0,50.144 0,112 v 288 c 0,61.856 50.144,112 112,112 h 288 c 61.856,0 112,-50.144 112,-112 V 112 C 512,50.144 461.856,0 400,0 Z m 80,400 c 0,44.183 -35.817,80 -80,80 H 112 C 67.817,480 32,444.183 32,400 V 112 C 32,67.817 67.817,32 112,32 h 288 c 44.183,0 80,35.817 80,80 z"
               inkscape:connector-curvature="0" />
            <path
               id="path4633"
               d="m 160,112 h -32 c -8.837,0 -16,7.163 -16,16 v 32 c 0,8.837 7.163,16 16,16 h 32 c 8.837,0 16,-7.163 16,-16 v -32 c 0,-8.837 -7.163,-16 -16,-16 z"
               inkscape:connector-curvature="0" />
            <path
               id="path4635"
               d="m 160,224 h -32 c -8.837,0 -16,7.163 -16,16 v 32 c 0,8.837 7.163,16 16,16 h 32 c 8.837,0 16,-7.163 16,-16 v -32 c 0,-8.837 -7.163,-16 -16,-16 z"
               inkscape:connector-curvature="0" />
            <path
               id="path4637"
               d="m 160,336 h -32 c -8.837,0 -16,7.163 -16,16 v 32 c 0,8.837 7.163,16 16,16 h 32 c 8.837,0 16,-7.163 16,-16 v -32 c 0,-8.837 -7.163,-16 -16,-16 z"
               inkscape:connector-curvature="0" />
            <rect
               id="rect4639"
               height="32"
               width="192"
               y="128"
               x="208" />
            <rect
               id="rect4641"
               height="32"
               width="192"
               y="240"
               x="208" />
            <rect
               id="rect4643"
               height="32"
               width="192"
               y="352"
               x="208" />
          </g>
        </g>
      </g>
      <g
         id="g4651" />
      <g
         id="g4653" />
      <g
         id="g4655" />
      <g
         id="g4657" />
      <g
         id="g4659" />
      <g
         id="g4661" />
      <g
         id="g4663" />
      <g
         id="g4665" />
      <g
         id="g4667" />
      <g
         id="g4669" />
      <g
         id="g4671" />
      <g
         id="g4673" />
      <g
         id="g4675" />
      <g
         id="g4677" />
      <g
         id="g4679" />
    </g>
    <g
       id="g5122"
       transform="matrix(0.49843759,0,0,0.49843759,-2556.515,536.55833)">
      <g
         id="g5056">
        <g
           id="g5054">
          <path
             id="path5052"
             d="m 312.453,199.601 c -6.066,-6.102 -12.792,-11.511 -20.053,-16.128 -19.232,-12.315 -41.59,-18.859 -64.427,-18.859 -31.697,-0.059 -62.106,12.535 -84.48,34.987 L 34.949,308.23 c -22.336,22.379 -34.89,52.7 -34.91,84.318 -0.042,65.98 53.41,119.501 119.39,119.543 31.648,0.11 62.029,-12.424 84.395,-34.816 l 89.6,-89.6 c 1.628,-1.614 2.537,-3.816 2.524,-6.108 -0.027,-4.713 -3.87,-8.511 -8.583,-8.484 h -3.413 c -18.72,0.066 -37.273,-3.529 -54.613,-10.581 -3.195,-1.315 -6.867,-0.573 -9.301,1.877 l -64.427,64.512 c -20.006,20.006 -52.442,20.006 -72.448,0 -20.006,-20.006 -20.006,-52.442 0,-72.448 L 192.134,247.558 c 19.99,-19.965 52.373,-19.965 72.363,0 13.472,12.679 34.486,12.679 47.957,0 5.796,-5.801 9.31,-13.495 9.899,-21.675 0.623,-9.775 -2.982,-19.348 -9.9,-26.282 z"
             inkscape:connector-curvature="0" />
        </g>
      </g>
      <g
         id="g5062">
        <g
           id="g5060">
          <path
             id="path5058"
             d="m 477.061,34.993 c -46.657,-46.657 -122.303,-46.657 -168.96,0 l -89.515,89.429 c -2.458,2.47 -3.167,6.185 -1.792,9.387 1.359,3.211 4.535,5.272 8.021,5.205 h 3.157 c 18.698,-0.034 37.221,3.589 54.528,10.667 3.195,1.315 6.867,0.573 9.301,-1.877 l 64.256,-64.171 c 20.006,-20.006 52.442,-20.006 72.448,0 20.006,20.006 20.006,52.442 0,72.448 l -80.043,79.957 -0.683,0.768 -27.989,27.819 c -19.99,19.965 -52.373,19.965 -72.363,0 -13.472,-12.679 -34.486,-12.679 -47.957,0 -5.833,5.845 -9.35,13.606 -9.899,21.845 -0.624,9.775 2.981,19.348 9.899,26.283 9.877,9.919 21.433,18.008 34.133,23.893 1.792,0.853 3.584,1.536 5.376,2.304 1.792,0.768 3.669,1.365 5.461,2.048 1.792,0.683 3.669,1.28 5.461,1.792 l 5.035,1.365 c 3.413,0.853 6.827,1.536 10.325,2.133 4.214,0.626 8.458,1.025 12.715,1.195 h 5.973 0.512 l 5.12,-0.597 c 1.877,-0.085 3.84,-0.512 6.059,-0.512 h 2.901 l 5.888,-0.853 2.731,-0.512 4.949,-1.024 h 0.939 c 20.961,-5.265 40.101,-16.118 55.381,-31.403 L 477.058,203.953 c 46.66,-46.657 46.66,-122.303 0.003,-168.96 z"
             inkscape:connector-curvature="0" />
        </g>
      </g>
      <g
         id="g5064" />
      <g
         id="g5066" />
      <g
         id="g5068" />
      <g
         id="g5070" />
      <g
         id="g5072" />
      <g
         id="g5074" />
      <g
         id="g5076" />
      <g
         id="g5078" />
      <g
         id="g5080" />
      <g
         id="g5082" />
      <g
         id="g5084" />
      <g
         id="g5086" />
      <g
         id="g5088" />
      <g
         id="g5090" />
      <g
         id="g5092" />
    </g>
    <g
       id="g5126"
       transform="matrix(2.45702,0,0,2.45702,-2882.9608,2183.942)">
      <path
         id="path5124"
         d="M 20.618,181.395 V 0 h 62.293 c 22.506,0 40.074,4.174 52.699,12.521 12.623,8.346 18.936,20.785 18.936,37.313 0,8.639 -2.033,16.318 -6.104,23.049 -4.07,6.729 -10.34,11.795 -18.813,15.199 10.631,2.408 18.479,7.246 23.547,14.514 5.064,7.268 7.6,15.637 7.6,25.104 0,17.691 -5.939,31.064 -17.814,40.115 -11.879,9.055 -28.904,13.58 -51.082,13.58 z M 62.853,75.623 h 20.93 c 9.551,-0.166 16.695,-2.014 21.43,-5.545 4.734,-3.529 7.102,-8.699 7.102,-15.51 0,-7.725 -2.41,-13.35 -7.225,-16.881 -4.82,-3.529 -12.211,-5.295 -22.178,-5.295 H 62.853 Z m 0,27.908 v 45.473 H 91.88 c 8.971,0 15.699,-1.766 20.184,-5.297 4.484,-3.529 6.729,-8.947 6.729,-16.256 0,-7.891 -1.932,-13.85 -5.795,-17.879 -3.861,-4.027 -10.111,-6.041 -18.748,-6.041 z"
         inkscape:connector-curvature="0" />
    </g>
    <g
       id="g5196"
       transform="matrix(3.8915025,0,0,3.8915025,-2738.7449,1091.7042)">
      <g
         id="g5140">
        <path
           id="path5138"
           d="M 87.494,0.763 C 87.115,0.282 86.535,0 85.923,0 H 32.411 c -0.924,0 -1.727,0.632 -1.944,1.53 l -2.204,9.115 c -0.144,0.596 -0.007,1.225 0.373,1.707 0.379,0.481 0.958,0.763 1.571,0.763 H 49.01 L 31.81,84.746 H 14.145 c -0.924,0 -1.727,0.633 -1.944,1.529 L 9.996,95.39 c -0.144,0.597 -0.007,1.226 0.373,1.707 0.379,0.481 0.958,0.764 1.571,0.764 h 53.512 c 0.924,0 1.727,-0.633 1.943,-1.53 l 2.204,-9.114 C 69.743,86.62 69.606,85.991 69.226,85.51 68.847,85.029 68.268,84.746 67.655,84.746 H 49.133 L 66.332,13.115 h 17.385 c 0.924,0 1.727,-0.632 1.943,-1.529 L 87.865,2.471 C 88.01,1.874 87.873,1.245 87.494,0.763 Z"
           inkscape:connector-curvature="0" />
      </g>
      <g
         id="g5142" />
      <g
         id="g5144" />
      <g
         id="g5146" />
      <g
         id="g5148" />
      <g
         id="g5150" />
      <g
         id="g5152" />
      <g
         id="g5154" />
      <g
         id="g5156" />
      <g
         id="g5158" />
      <g
         id="g5160" />
      <g
         id="g5162" />
      <g
         id="g5164" />
      <g
         id="g5166" />
      <g
         id="g5168" />
      <g
         id="g5170" />
    </g>
    <g
       id="g5202"
       transform="matrix(1.7334037,0,0,1.7334037,-3079.3843,588.86183)">
      <path
         id="path5198"
         d="M 61.638,164.165 C 75.236,175.39 93.257,181 115.458,181 c 21.955,0 39.679,-5.61 53.239,-16.835 C 182.254,152.942 189,137.13 189,116.731 V 0 h -42 v 116.731 c 0,11.06 -2.501,19.212 -8.03,24.454 -5.529,5.244 -13.284,7.864 -23.524,7.864 -10.322,0 -18.312,-2.642 -23.965,-7.926 C 85.829,135.841 83,127.711 83,116.731 V 0 H 41 v 116.731 c 0,20.399 7.039,36.211 20.638,47.434 z"
         inkscape:connector-curvature="0" />
      <rect
         id="rect5200"
         height="33"
         y="197"
         width="230"
         x="0" />
    </g>
    <g
       id="g5318"
       transform="matrix(38.064922,0,0,38.064922,-4658.4683,-2326.311)">
      <g
         id="g5247">
        <path
           id="path5215"
           d="M 25.353,0 H 2.699 C 1.449,0 0.434,1 0.434,2.232 V 25.82 c 0,1.23 1.015,2.23 2.265,2.23 h 22.654 c 1.248,0 2.264,-1 2.264,-2.23 V 2.232 C 27.617,1 26.601,0 25.353,0 Z M 4.055,1.68 h 19.941 c 1.1,0 1.993,0.877 1.993,1.965 V 7.497 H 2.063 V 3.645 C 2.063,2.557 2.954,1.68 4.055,1.68 Z M 2.063,24.408 V 9.668 H 8.959 V 26.373 H 4.055 c -1.101,0 -1.992,-0.881 -1.992,-1.965 z m 21.933,1.965 H 11.215 V 9.668 h 14.774 v 14.74 c 10e-4,1.084 -0.893,1.965 -1.993,1.965 z"
           inkscape:connector-curvature="0" />
        <g
           id="g5217" />
        <g
           id="g5219" />
        <g
           id="g5221" />
        <g
           id="g5223" />
        <g
           id="g5225" />
        <g
           id="g5227" />
        <g
           id="g5229" />
        <g
           id="g5231" />
        <g
           id="g5233" />
        <g
           id="g5235" />
        <g
           id="g5237" />
        <g
           id="g5239" />
        <g
           id="g5241" />
        <g
           id="g5243" />
        <g
           id="g5245" />
      </g>
      <g
         id="g5249" />
      <g
         id="g5251" />
      <g
         id="g5253" />
      <g
         id="g5255" />
      <g
         id="g5257" />
      <g
         id="g5259" />
      <g
         id="g5261" />
      <g
         id="g5263" />
      <g
         id="g5265" />
      <g
         id="g5267" />
      <g
         id="g5269" />
      <g
         id="g5271" />
      <g
         id="g5273" />
      <g
         id="g5275" />
      <g
         id="g5277" />
    </g>
    <g
       id="g5342"
       transform="matrix(8.8874947,0,0,8.8874947,-3596.3503,1087.5201)">
      <path
         id="path5320"
         d="M 54,8 H 10 c -1.104,0 -2,0.896 -2,2 0,1.104 0.896,2 2,2 h 44 c 1.104,0 2,-0.896 2,-2 0,-1.104 -0.896,-2 -2,-2 z"
         inkscape:connector-curvature="0" />
      <path
         id="path5322"
         d="M 54,52 H 10 c -1.104,0 -2,0.896 -2,2 0,1.104 0.896,2 2,2 h 44 c 1.104,0 2,-0.896 2,-2 0,-1.104 -0.896,-2 -2,-2 z"
         inkscape:connector-curvature="0" />
      <path
         id="path5324"
         d="M 54,19 H 26 c -1.104,0 -2,0.896 -2,2 0,1.104 0.896,2 2,2 h 28 c 1.104,0 2,-0.896 2,-2 0,-1.104 -0.896,-2 -2,-2 z"
         inkscape:connector-curvature="0" />
      <path
         id="path5326"
         d="M 54,30 H 10 c -1.104,0 -2,0.896 -2,2 0,1.104 0.896,2 2,2 h 44 c 1.104,0 2,-0.896 2,-2 0,-1.104 -0.896,-2 -2,-2 z"
         inkscape:connector-curvature="0" />
      <path
         id="path5328"
         d="M 54,41 H 26 c -1.104,0 -2,0.896 -2,2 0,1.104 0.896,2 2,2 h 28 c 1.104,0 2,-0.896 2,-2 0,-1.104 -0.896,-2 -2,-2 z"
         inkscape:connector-curvature="0" />
    </g>
    <g
       id="g5366"
       transform="matrix(8.8874947,0,0,8.8874947,-4180.0671,1226.5002)">
      <path
         id="path5344"
         d="M 54,8 H 10 c -1.104,0 -2,0.896 -2,2 0,1.104 0.896,2 2,2 h 44 c 1.104,0 2,-0.896 2,-2 0,-1.104 -0.896,-2 -2,-2 z"
         inkscape:connector-curvature="0" />
      <path
         id="path5346"
         d="M 54,52 H 10 c -1.104,0 -2,0.896 -2,2 0,1.104 0.896,2 2,2 h 44 c 1.104,0 2,-0.896 2,-2 0,-1.104 -0.896,-2 -2,-2 z"
         inkscape:connector-curvature="0" />
      <path
         id="path5348"
         d="m 46,23 c 1.104,0 2,-0.896 2,-2 0,-1.104 -0.896,-2 -2,-2 H 18 c -1.104,0 -2,0.896 -2,2 0,1.104 0.896,2 2,2 z"
         inkscape:connector-curvature="0" />
      <path
         id="path5350"
         d="M 54,30 H 10 c -1.104,0 -2,0.896 -2,2 0,1.104 0.896,2 2,2 h 44 c 1.104,0 2,-0.896 2,-2 0,-1.104 -0.896,-2 -2,-2 z"
         inkscape:connector-curvature="0" />
      <path
         id="path5352"
         d="m 46,45 c 1.104,0 2,-0.896 2,-2 0,-1.104 -0.896,-2 -2,-2 H 18 c -1.104,0 -2,0.896 -2,2 0,1.104 0.896,2 2,2 z"
         inkscape:connector-curvature="0" />
    </g>
    <g
       id="g5390"
       transform="matrix(8.5311353,0,0,8.5311353,-4095.9661,667.01603)">
      <path
         id="path5368"
         d="M 54,8 H 10 c -1.104,0 -2,0.896 -2,2 0,1.104 0.896,2 2,2 h 44 c 1.104,0 2,-0.896 2,-2 0,-1.104 -0.896,-2 -2,-2 z"
         inkscape:connector-curvature="0" />
      <path
         id="path5370"
         d="M 54,52 H 10 c -1.104,0 -2,0.896 -2,2 0,1.104 0.896,2 2,2 h 44 c 1.104,0 2,-0.896 2,-2 0,-1.104 -0.896,-2 -2,-2 z"
         inkscape:connector-curvature="0" />
      <path
         id="path5372"
         d="m 10,23 h 28 c 1.104,0 2,-0.896 2,-2 0,-1.104 -0.896,-2 -2,-2 H 10 c -1.104,0 -2,0.896 -2,2 0,1.104 0.896,2 2,2 z"
         inkscape:connector-curvature="0" />
      <path
         id="path5374"
         d="M 54,30 H 10 c -1.104,0 -2,0.896 -2,2 0,1.104 0.896,2 2,2 h 44 c 1.104,0 2,-0.896 2,-2 0,-1.104 -0.896,-2 -2,-2 z"
         inkscape:connector-curvature="0" />
      <path
         id="path5376"
         d="m 10,45 h 28 c 1.104,0 2,-0.896 2,-2 0,-1.104 -0.896,-2 -2,-2 H 10 c -1.104,0 -2,0.896 -2,2 0,1.104 0.896,2 2,2 z"
         inkscape:connector-curvature="0" />
    </g>
  </g>
</svg>
