<?xml version="1.0" encoding="UTF-8" standalone="no"?>
<!-- Created with Inkscape (http://www.inkscape.org/) -->

<svg
   xmlns:dc="http://purl.org/dc/elements/1.1/"
   xmlns:cc="http://creativecommons.org/ns#"
   xmlns:rdf="http://www.w3.org/1999/02/22-rdf-syntax-ns#"
   xmlns:svg="http://www.w3.org/2000/svg"
   xmlns="http://www.w3.org/2000/svg"
   xmlns:sodipodi="http://sodipodi.sourceforge.net/DTD/sodipodi-0.dtd"
   xmlns:inkscape="http://www.inkscape.org/namespaces/inkscape"
   width="1205.6406mm"
   height="1076.9187mm"
   viewBox="0 0 1205.6406 1076.9187"
   version="1.1"
   id="svg8"
   inkscape:version="0.92.3 (2405546, 2018-03-11)"
   sodipodi:docname="table.svg">
  <defs
     id="defs2" />
  <sodipodi:namedview
     id="base"
     pagecolor="#ffffff"
     bordercolor="#666666"
     borderopacity="1.0"
     inkscape:pageopacity="0.0"
     inkscape:pageshadow="2"
     inkscape:zoom="0.015467961"
     inkscape:cx="-3286.7525"
     inkscape:cy="-7438.8879"
     inkscape:document-units="mm"
     inkscape:current-layer="layer1"
     showgrid="false"
     inkscape:window-width="1920"
     inkscape:window-height="1015"
     inkscape:window-x="0"
     inkscape:window-y="36"
     inkscape:window-maximized="1" />
  <metadata
     id="metadata5">
    <rdf:RDF>
      <cc:Work
         rdf:about="">
        <dc:format>image/svg+xml</dc:format>
        <dc:type
           rdf:resource="http://purl.org/dc/dcmitype/StillImage" />
        <dc:title></dc:title>
      </cc:Work>
    </rdf:RDF>
  </metadata>
  <g
     inkscape:label="Layer 1"
     inkscape:groupmode="layer"
     id="layer1"
     transform="translate(4727.409,2330.9098)">
    <g
       id="g4987"
       transform="matrix(2.6973273,0,0,2.6973273,-4727.409,-2395.2707)">
      <g
         id="g4931">
	<path
   id="path4929"
   d="M 430.274,23.861 H 16.698 C 7.48,23.861 0,31.357 0,40.559 v 365.86 c 0,5.654 2.834,10.637 7.155,13.663 v 2.632 h 5.986 c 1.146,0.252 2.332,0.401 3.557,0.401 h 413.576 c 1.214,0 2.396,-0.149 3.545,-0.401 h 0.821 v -0.251 c 7.082,-1.938 12.336,-8.362 12.336,-16.044 V 40.564 c 10e-4,-9.207 -7.498,-16.703 -16.702,-16.703 z M 66,408.4 H 15.458 c -0.676,-0.416 -1.146,-1.132 -1.146,-1.98 V 363.07 H 66 Z m 0,-59.645 H 14.312 v -47.01 H 66 Z m 0,-61.319 H 14.312 V 237.804 H 66 Z m 0,-63.945 H 14.312 V 169.804 H 66 Z M 66,155.49 H 14.312 V 102.997 H 66 Z M 186.497,408.4 H 80.318 v -45.33 h 106.179 z m 0,-59.645 H 80.318 v -47.01 h 106.179 z m 0,-61.319 H 80.318 v -49.632 h 106.179 z m 0,-63.945 H 80.318 v -53.687 h 106.179 z m 0,-68.001 H 80.318 v -52.493 h 106.179 z m 0,-66.81 H 80.318 V 38.17 H 186.497 Z M 308.195,408.4 H 200.812 v -45.33 h 107.383 z m 0,-59.645 H 200.812 v -47.01 h 107.383 z m 0,-61.319 H 200.812 v -49.632 h 107.383 z m 0,-63.945 H 200.812 v -53.687 h 107.383 z m 0,-68.001 H 200.812 v -52.493 h 107.383 z m 0,-66.81 H 200.812 V 38.17 H 308.195 Z M 432.66,406.419 c 0,0.845 -0.48,1.56 -1.149,1.98 h -109 v -45.33 H 432.66 Z m 0,-57.664 H 322.511 v -47.01 H 432.66 Z m 0,-61.319 H 322.511 V 237.804 H 432.66 Z m 0,-63.945 H 322.511 V 169.804 H 432.66 Z m 0,-68.001 H 322.511 V 102.997 H 432.66 Z m 0,-66.81 H 322.511 V 38.17 h 107.764 c 1.312,0 2.386,1.073 2.386,2.389 V 88.68 Z M 175.854,276.251 H 89.938 V 246.37 h 85.915 v 29.881 z m 121.407,1.127 h -85.915 v -29.883 h 85.915 z m 124.4,-0.657 h -85.914 v -29.883 h 85.914 z"
   inkscape:connector-curvature="0" />

</g>
      <g
         id="g4933">
</g>
      <g
         id="g4935">
</g>
      <g
         id="g4937">
</g>
      <g
         id="g4939">
</g>
      <g
         id="g4941">
</g>
      <g
         id="g4943">
</g>
      <g
         id="g4945">
</g>
      <g
         id="g4947">
</g>
      <g
         id="g4949">
</g>
      <g
         id="g4951">
</g>
      <g
         id="g4953">
</g>
      <g
         id="g4955">
</g>
      <g
         id="g4957">
</g>
      <g
         id="g4959">
</g>
      <g
         id="g4961">
</g>
    </g>
  </g>
</svg>
