<?xml version="1.0" encoding="UTF-8" standalone="no"?>
<!-- Created with Inkscape (http://www.inkscape.org/) -->

<svg
   xmlns:dc="http://purl.org/dc/elements/1.1/"
   xmlns:cc="http://creativecommons.org/ns#"
   xmlns:rdf="http://www.w3.org/1999/02/22-rdf-syntax-ns#"
   xmlns:svg="http://www.w3.org/2000/svg"
   xmlns="http://www.w3.org/2000/svg"
   xmlns:sodipodi="http://sodipodi.sourceforge.net/DTD/sodipodi-0.dtd"
   xmlns:inkscape="http://www.inkscape.org/namespaces/inkscape"
   width="1205.6406mm"
   height="1076.9187mm"
   viewBox="0 0 1205.6406 1076.9187"
   version="1.1"
   id="svg8"
   sodipodi:docname="underline.svg"
   inkscape:version="0.92.3 (2405546, 2018-03-11)">
  <defs
     id="defs2" />
  <sodipodi:namedview
     id="base"
     pagecolor="#ffffff"
     bordercolor="#666666"
     borderopacity="1.0"
     inkscape:pageopacity="0.0"
     inkscape:pageshadow="2"
     inkscape:zoom="0.0109375"
     inkscape:cx="-29747.654"
     inkscape:cy="9.2390904"
     inkscape:document-units="mm"
     inkscape:current-layer="layer1"
     showgrid="false"
     inkscape:window-width="1920"
     inkscape:window-height="1015"
     inkscape:window-x="0"
     inkscape:window-y="36"
     inkscape:window-maximized="1" />
  <metadata
     id="metadata5">
    <rdf:RDF>
      <cc:Work
         rdf:about="">
        <dc:format>image/svg+xml</dc:format>
        <dc:type
           rdf:resource="http://purl.org/dc/dcmitype/StillImage" />
        <dc:title></dc:title>
      </cc:Work>
    </rdf:RDF>
  </metadata>
  <g
     inkscape:label="Layer 1"
     inkscape:groupmode="layer"
     id="layer1"
     transform="translate(4727.409,2330.9098)">
    <g
       id="g5202"
       transform="matrix(4.6710444,0,0,4.6710444,-4661.7588,-2329.6206)">
      <path
         id="path5198"
         d="M 61.638,164.165 C 75.236,175.39 93.257,181 115.458,181 c 21.955,0 39.679,-5.61 53.239,-16.835 C 182.254,152.942 189,137.13 189,116.731 V 0 h -42 v 116.731 c 0,11.06 -2.501,19.212 -8.03,24.454 -5.529,5.244 -13.284,7.864 -23.524,7.864 -10.322,0 -18.312,-2.642 -23.965,-7.926 C 85.829,135.841 83,127.711 83,116.731 V 0 H 41 v 116.731 c 0,20.399 7.039,36.211 20.638,47.434 z"
         inkscape:connector-curvature="0" />
      <rect
         id="rect5200"
         height="33"
         y="197"
         width="230"
         x="0" />
    </g>
  </g>
</svg>
