<?xml version="1.0" encoding="UTF-8" standalone="no"?>
<!-- Created with Inkscape (http://www.inkscape.org/) -->

<svg
   xmlns:dc="http://purl.org/dc/elements/1.1/"
   xmlns:cc="http://creativecommons.org/ns#"
   xmlns:rdf="http://www.w3.org/1999/02/22-rdf-syntax-ns#"
   xmlns:svg="http://www.w3.org/2000/svg"
   xmlns="http://www.w3.org/2000/svg"
   xmlns:sodipodi="http://sodipodi.sourceforge.net/DTD/sodipodi-0.dtd"
   xmlns:inkscape="http://www.inkscape.org/namespaces/inkscape"
   width="1205.6406mm"
   height="1076.9187mm"
   viewBox="0 0 1205.6406 1076.9187"
   version="1.1"
   id="svg8"
   sodipodi:docname="undo.svg"
   inkscape:version="0.92.3 (2405546, 2018-03-11)">
  <defs
     id="defs2" />
  <sodipodi:namedview
     id="base"
     pagecolor="#ffffff"
     bordercolor="#666666"
     borderopacity="1.0"
     inkscape:pageopacity="0.0"
     inkscape:pageshadow="2"
     inkscape:zoom="0.021875"
     inkscape:cx="3371.0733"
     inkscape:cy="314.6038"
     inkscape:document-units="mm"
     inkscape:current-layer="layer1"
     showgrid="false"
     inkscape:window-width="713"
     inkscape:window-height="528"
     inkscape:window-x="949"
     inkscape:window-y="211"
     inkscape:window-maximized="0" />
  <metadata
     id="metadata5">
    <rdf:RDF>
      <cc:Work
         rdf:about="">
        <dc:format>image/svg+xml</dc:format>
        <dc:type
           rdf:resource="http://purl.org/dc/dcmitype/StillImage" />
        <dc:title></dc:title>
      </cc:Work>
    </rdf:RDF>
  </metadata>
  <g
     inkscape:label="Layer 1"
     inkscape:groupmode="layer"
     id="layer1"
     transform="translate(4727.409,2330.9098)">
    <g
       id="g1161"
       transform="matrix(44.752941,0,0,44.752941,-4721.5034,-2389.3681)">
      <g
         id="g1090">
	<path
   id="path1058"
   d="m 26.105,21.891 c -0.229,0 -0.439,-0.131 -0.529,-0.346 v 0 c -0.066,-0.156 -1.716,-3.857 -7.885,-4.59 -1.285,-0.156 -2.824,-0.236 -4.693,-0.25 v 4.613 c 0,0.213 -0.115,0.406 -0.304,0.508 -0.188,0.098 -0.413,0.084 -0.588,-0.033 L 0.254,13.815 C 0.094,13.708 0,13.528 0,13.339 0,13.148 0.094,12.974 0.254,12.862 L 12.111,4.883 c 0.175,-0.121 0.398,-0.129 0.588,-0.029 0.19,0.102 0.303,0.295 0.303,0.502 v 4.293 c 2.578,0.336 13.674,2.33 13.674,11.674 0,0.271 -0.191,0.508 -0.459,0.562 -0.037,0.006 -0.076,0.006 -0.112,0.006 z"
   inkscape:connector-curvature="0" />

	<g
   id="g1060">
	</g>

	<g
   id="g1062">
	</g>

	<g
   id="g1064">
	</g>

	<g
   id="g1066">
	</g>

	<g
   id="g1068">
	</g>

	<g
   id="g1070">
	</g>

	<g
   id="g1072">
	</g>

	<g
   id="g1074">
	</g>

	<g
   id="g1076">
	</g>

	<g
   id="g1078">
	</g>

	<g
   id="g1080">
	</g>

	<g
   id="g1082">
	</g>

	<g
   id="g1084">
	</g>

	<g
   id="g1086">
	</g>

	<g
   id="g1088">
	</g>

</g>
      <g
         id="g1092">
</g>
      <g
         id="g1094">
</g>
      <g
         id="g1096">
</g>
      <g
         id="g1098">
</g>
      <g
         id="g1100">
</g>
      <g
         id="g1102">
</g>
      <g
         id="g1104">
</g>
      <g
         id="g1106">
</g>
      <g
         id="g1108">
</g>
      <g
         id="g1110">
</g>
      <g
         id="g1112">
</g>
      <g
         id="g1114">
</g>
      <g
         id="g1116">
</g>
      <g
         id="g1118">
</g>
      <g
         id="g1120">
</g>
    </g>
  </g>
</svg>
